<?xml version="1.0" encoding="iso-8859-1"?>
<!-- Generator: Adobe Illustrator 19.0.0, SVG Export Plug-In . SVG Version: 6.00 Build 0)  -->
<svg version="1.1" id="Layer_1" xmlns="http://www.w3.org/2000/svg" xmlns:xlink="http://www.w3.org/1999/xlink" x="0px" y="0px"
	 viewBox="0 0 343.463 343.463" style="enable-background:new 0 0 343.463 343.463;" xml:space="preserve">
<g>
	<g>
		<path style="fill:#F47660;" d="M107.959,37.565C76.074,69.449,67.432,97.643,69.774,142.137
			c2.29,43.514-52.178,90.306-52.938,124.191l0.004,0.005c-1.808,20.173,5,40.972,20.441,56.413
			c17.633,17.633,42.248,23.999,64.942,19.14l0.017,0.014c24.688-3.565,109.775-45.625,187.102-122.951
			c50.086-50.085,50.088-131.295,0-181.383C239.253-12.523,158.044-12.521,107.959,37.565z M231.649,86.226
			c14.065,14.065,14.066,36.868,0,50.935c-14.065,14.064-36.868,14.064-50.934-0.001c-14.064-14.064-14.065-36.868,0-50.934
			S217.584,72.162,231.649,86.226z"/>
		<path style="fill:#F47660;" d="M178.594,84.105c-15.237,15.236-15.236,39.94,0,55.176c15.236,15.237,39.94,15.237,55.176,0.002
			c15.238-15.238,15.237-39.941,0-55.178C218.534,68.869,193.83,68.868,178.594,84.105z M223.114,94.759
			c9.354,9.354,9.355,24.514,0,33.868c-9.352,9.353-24.514,9.353-33.865-0.001c-9.353-9.351-9.353-24.514,0-33.866
			C198.602,85.407,213.764,85.408,223.114,94.759z"/>
	</g>
	<path style="fill:#BF4132;" d="M271.778,55.13c-40.323-40.324-105.934-40.324-146.256-0.002
		c-25.498,25.498-33.016,46.322-30.943,85.703c0.513,9.748-0.875,19.238-3.508,28.453c5.354,0.019,11.317,0.391,17.897,1.125
		c21.941,2.448,45.467,8.654,64.547,17.029c30.061,13.194,49.09,30.993,56.056,52.144c14.02-11.497,28.249-24.236,42.209-38.196
		C312.102,161.063,312.102,95.452,271.778,55.13z M231.649,137.161c-14.065,14.064-36.868,14.064-50.934-0.001
		c-14.064-14.064-14.065-36.868,0-50.934s36.869-14.064,50.934,0C245.714,100.292,245.715,123.095,231.649,137.161z
		 M180.569,219.558c-34.551-21.913-85.444-27.054-100.001-24.445c-5.695,11.114-12.417,21.741-18.807,31.833
		c-8.124,12.834-18.069,28.543-19.825,37.621l-0.356,3.983c-1.221,13.628,3.614,26.98,13.266,36.632
		c11.061,11.061,26.829,15.703,42.178,12.416l6.229-1.326c17.021-4.899,57.873-24.935,104.051-59.292
		C206.71,243.036,197.741,230.45,180.569,219.558z"/>
</g>
<g>
</g>
<g>
</g>
<g>
</g>
<g>
</g>
<g>
</g>
<g>
</g>
<g>
</g>
<g>
</g>
<g>
</g>
<g>
</g>
<g>
</g>
<g>
</g>
<g>
</g>
<g>
</g>
<g>
</g>
</svg>
