<?xml version="1.0" encoding="iso-8859-1"?>
<!-- Generator: Adobe Illustrator 18.0.0, SVG Export Plug-In . SVG Version: 6.00 Build 0)  -->
<!DOCTYPE svg PUBLIC "-//W3C//DTD SVG 1.1//EN" "http://www.w3.org/Graphics/SVG/1.1/DTD/svg11.dtd">
<svg version="1.1" id="Capa_1" xmlns="http://www.w3.org/2000/svg" xmlns:xlink="http://www.w3.org/1999/xlink" x="0px" y="0px"
	 viewBox="0 0 58 58" style="enable-background:new 0 0 58 58;" xml:space="preserve">
<g>
	<path d="M45.768,6.161c-1.884-0.244-3.766-0.099-5.608,0.432C37.517,3.106,33.399,1.047,29,1.047s-8.517,2.06-11.16,5.546
		c-1.842-0.529-3.724-0.675-5.608-0.432C5.318,7.057,0.06,12.974,0.001,19.925c-0.055,6.503,4.307,12.141,10.608,13.709
		c1.496,0.372,2.6,1.653,2.746,3.188l0.838,8.803l-0.001,0l0.479,5.029c0.204,2.146,2.92,3.619,4.062,4.147
		c0.163,0.075,0.294,0.131,0.381,0.167c3.142,1.323,6.514,1.984,9.886,1.984c3.371,0,6.74-0.661,9.877-1.982
		c0.702-0.29,4.215-1.864,4.449-4.316l0.479-5.029l-0.001,0l0.838-8.803c0.146-1.535,1.25-2.816,2.746-3.188
		C53.692,32.065,58.055,26.428,58,19.925C57.94,12.974,52.682,7.057,45.768,6.161z M38.108,53.125
		c-5.789,2.438-12.429,2.439-18.222-0.002c-1.247-0.52-3.134-1.724-3.223-2.658l-0.124-1.298c3.955,1.912,8.137,2.88,12.46,2.88
		s8.505-0.968,12.46-2.88l-0.124,1.298C41.248,51.399,39.36,52.604,38.108,53.125z M46.908,31.692
		c-2.317,0.577-4.027,2.563-4.254,4.94l-0.968,10.162c-4.004,2.151-8.268,3.252-12.686,3.252s-8.682-1.101-12.686-3.252
		l-0.968-10.162c-0.227-2.378-1.937-4.363-4.254-4.94c-5.4-1.344-9.139-6.176-9.092-11.75c0.051-5.958,4.56-11.029,10.489-11.797
		c0.504-0.065,1.009-0.099,1.513-0.099c1.313,0,2.621,0.222,3.903,0.663l0.724,0.249l0.43-0.634C21.298,5.021,25.014,3.047,29,3.047
		s7.702,1.974,9.941,5.278l0.43,0.634l0.724-0.249c1.774-0.61,3.596-0.8,5.416-0.564C51.439,8.913,55.949,13.984,56,19.942
		C56.047,25.517,52.308,30.349,46.908,31.692z"/>
	<path d="M18.876,35.055c-0.548,0.068-0.937,0.568-0.868,1.116l1,8c0.063,0.506,0.494,0.876,0.991,0.876
		c0.042,0,0.083-0.003,0.125-0.008c0.548-0.068,0.937-0.568,0.868-1.116l-1-8C19.923,35.374,19.418,34.992,18.876,35.055z"/>
	<path d="M26,37.047c-0.552,0-1,0.447-1,1v8c0,0.553,0.448,1,1,1s1-0.447,1-1v-8C27,37.494,26.552,37.047,26,37.047z"/>
	<path d="M39.124,35.055c-0.543-0.063-1.048,0.319-1.116,0.868l-1,8c-0.068,0.548,0.32,1.048,0.868,1.116
		c0.042,0.005,0.084,0.008,0.125,0.008c0.497,0,0.928-0.37,0.991-0.876l1-8C40.061,35.623,39.672,35.123,39.124,35.055z"/>
	<path d="M32,37.047c-0.552,0-1,0.447-1,1v8c0,0.553,0.448,1,1,1c0.552,0,1-0.447,1-1v-8C33,37.494,32.552,37.047,32,37.047z"/>
	<path d="M16.011,11.047c-8.348-0.071-9.973,6.717-9.987,6.786c-0.119,0.539,0.223,1.072,0.762,1.19
		c0.072,0.016,0.145,0.023,0.215,0.023c0.459,0,0.874-0.318,0.976-0.786c0.012-0.053,1.211-5.329,8.013-5.214
		c0.535-0.037,1.005-0.438,1.011-0.989S16.563,11.053,16.011,11.047z"/>
	<path d="M23.389,7.255c-0.437,0.338-0.518,0.966-0.18,1.403c0.337,0.437,0.966,0.516,1.403,0.181
		c0.041-0.033,4.222-3.182,8.816,0.027c0.174,0.122,0.374,0.181,0.572,0.181c0.316,0,0.626-0.149,0.821-0.428
		c0.316-0.452,0.206-1.076-0.247-1.392C29.943,3.994,25.233,5.833,23.389,7.255z"/>
</g>
<g>
</g>
<g>
</g>
<g>
</g>
<g>
</g>
<g>
</g>
<g>
</g>
<g>
</g>
<g>
</g>
<g>
</g>
<g>
</g>
<g>
</g>
<g>
</g>
<g>
</g>
<g>
</g>
<g>
</g>
</svg>
