<?xml version="1.0" encoding="iso-8859-1"?>
<!-- Generator: Adobe Illustrator 18.0.0, SVG Export Plug-In . SVG Version: 6.00 Build 0)  -->
<!DOCTYPE svg PUBLIC "-//W3C//DTD SVG 1.1//EN" "http://www.w3.org/Graphics/SVG/1.1/DTD/svg11.dtd">
<svg version="1.1" id="Capa_1" xmlns="http://www.w3.org/2000/svg" xmlns:xlink="http://www.w3.org/1999/xlink" x="0px" y="0px"
	 viewBox="0 0 58 58" style="enable-background:new 0 0 58 58;" xml:space="preserve">
<g>
	<path d="M10.609,33.628c1.497,0.372,2.6,1.653,2.746,3.188l0.834,8.754l1.688,0.992c4.117,2.306,8.538,3.479,13.124,3.479
		s9.007-1.174,13.142-3.489l1.675-1.041l0.828-8.695c0.146-1.534,1.25-2.815,2.746-3.188C53.692,32.06,58.055,26.422,58,19.919
		C57.94,12.968,52.682,7.05,45.767,6.154c-1.874-0.241-3.772-0.095-5.607,0.433C37.517,3.101,33.399,1.041,29,1.041
		s-8.517,2.06-11.16,5.546c-1.836-0.527-3.733-0.675-5.608-0.433C5.318,7.05,0.06,12.968,0.001,19.919
		C-0.055,26.422,4.308,32.06,10.609,33.628z M27,46.041c0,0.553-0.448,1-1,1s-1-0.447-1-1v-8c0-0.553,0.448-1,1-1s1,0.447,1,1
		V46.041z M33,46.041c0,0.553-0.448,1-1,1c-0.552,0-1-0.447-1-1v-8c0-0.553,0.448-1,1-1c0.552,0,1,0.447,1,1V46.041z M38.008,35.917
		c0.068-0.549,0.573-0.931,1.116-0.868c0.548,0.068,0.937,0.568,0.868,1.116l-1,8c-0.063,0.506-0.494,0.876-0.991,0.876
		c-0.042,0-0.083-0.003-0.125-0.008c-0.548-0.068-0.937-0.568-0.868-1.116L38.008,35.917z M23.389,7.249
		c1.845-1.422,6.555-3.261,11.184-0.027c0.453,0.315,0.563,0.939,0.247,1.392c-0.194,0.278-0.505,0.428-0.821,0.428
		c-0.198,0-0.397-0.059-0.572-0.181c-4.594-3.209-8.775-0.061-8.816-0.027c-0.437,0.335-1.065,0.256-1.403-0.181
		C22.871,8.215,22.952,7.587,23.389,7.249z M18.876,35.049c0.542-0.063,1.047,0.319,1.116,0.868l1,8
		c0.068,0.548-0.32,1.048-0.868,1.116c-0.042,0.005-0.084,0.008-0.125,0.008c-0.497,0-0.928-0.37-0.991-0.876l-1-8
		C17.939,35.617,18.328,35.117,18.876,35.049z M6.023,17.827c0.015-0.069,1.64-6.857,9.987-6.786
		c0.552,0.006,0.995,0.459,0.989,1.011s-0.476,0.952-1.011,0.989c-6.802-0.115-8.001,5.161-8.013,5.214
		c-0.102,0.468-0.516,0.786-0.976,0.786c-0.071,0-0.143-0.008-0.215-0.023C6.247,18.899,5.905,18.366,6.023,17.827z"/>
	<path d="M43.158,48.273c-4.476,2.508-9.227,3.768-14.158,3.768s-9.682-1.26-14.119-3.745l-0.458-0.269l0.25,2.622
		c0.108,1.134,0.925,2.218,2.428,3.222c0.127,0.085,0.255,0.166,0.383,0.245c0.247,0.15,0.484,0.284,0.7,0.399
		c0.542,0.287,0.932,0.448,0.932,0.448c3.146,1.324,6.472,1.996,9.885,1.996s6.739-0.672,9.879-1.994c0,0,0.393-0.161,0.94-0.451
		c0.213-0.114,0.451-0.248,0.701-0.4c0.125-0.077,0.252-0.158,0.379-0.243c1.503-1.004,2.32-2.088,2.428-3.222l0.251-2.636
		L43.158,48.273z"/>
</g>
<g>
</g>
<g>
</g>
<g>
</g>
<g>
</g>
<g>
</g>
<g>
</g>
<g>
</g>
<g>
</g>
<g>
</g>
<g>
</g>
<g>
</g>
<g>
</g>
<g>
</g>
<g>
</g>
<g>
</g>
</svg>
