<?xml version="1.0" encoding="iso-8859-1"?>
<!-- Generator: Adobe Illustrator 19.0.0, SVG Export Plug-In . SVG Version: 6.00 Build 0)  -->
<svg version="1.1" id="Layer_1" xmlns="http://www.w3.org/2000/svg" xmlns:xlink="http://www.w3.org/1999/xlink" x="0px" y="0px"
	 viewBox="0 0 375.463 375.463" style="enable-background:new 0 0 375.463 375.463;" xml:space="preserve">
<g>
	<g>
		<g>
			<path style="fill:#C4636A;" d="M59.626,148.18c-5.34,0-9.686-4.346-9.686-9.688v-10.001c0-5.712-4.647-10.358-10.359-10.358
				c-0.229,0-0.457,0.006-0.682,0.021c2.303,2.819,3.686,6.42,3.686,10.337v10.001c0,5.342-4.344,9.688-9.686,9.688
				c-5.34,0-9.685-4.346-9.685-9.688v-10.001c0-3.917,1.382-7.518,3.686-10.337c-0.225-0.016-0.453-0.021-0.682-0.021
				c-5.713,0-10.36,4.646-10.36,10.358c0,1.659-1.345,3.005-3.004,3.005s-3.004-1.346-3.004-3.005
				c0-9.025,7.343-16.367,16.369-16.367c2.378,0,4.64,0.511,6.681,1.427c2.041-0.916,4.302-1.427,6.681-1.427
				c9.025,0,16.367,7.342,16.367,16.367v10.001c0,2.029,1.65,3.68,3.678,3.68c2.029,0,3.679-1.65,3.679-3.68
				c0-1.658,1.345-3.003,3.004-3.003c1.66,0,3.004,1.345,3.004,3.003C69.313,143.835,64.968,148.18,59.626,148.18z M32.901,120.582
				c-2.248,1.9-3.677,4.741-3.677,7.91v10.001c0,2.029,1.649,3.68,3.676,3.68c2.028,0,3.678-1.65,3.678-3.68v-10.001
				C36.578,125.323,35.148,122.482,32.901,120.582z"/>
		</g>
		<path style="fill:#FF8189;" d="M243.402,100.712c54.747,0,99.128,44.381,99.128,99.129c0,54.747-44.381,99.127-99.128,99.127
			H127.897c-54.747,0-99.129-44.38-99.129-99.127c0-54.748,44.381-99.129,99.129-99.129H243.402z"/>
		<path style="fill:#C4636A;" d="M241.607,246.784c14.412,0,26.093,11.682,26.093,26.093c0,14.41-11.682,26.091-26.093,26.091
			H203.93c-14.41,0-26.091-11.681-26.091-26.091c0-14.411,11.682-26.093,26.091-26.093L241.607,246.784L241.607,246.784z"/>
		<g>
			<path style="fill:#C4636A;" d="M328.422,161.235c-5.287,0-9.613,4.326-9.613,9.613v39.207c0,5.286,4.327,9.612,9.613,9.612h9.978
				c5.287,0,9.613-4.326,9.613-9.612v-39.207c0-5.287-4.326-9.613-9.613-9.613H328.422z"/>
		</g>
		<circle style="fill:#333E48;" cx="274.795" cy="157.925" r="11.635"/>
		<path style="fill:#C4636A;" d="M89.861,179.954c-32.864,0-59.508,26.642-59.508,59.507c0,2.481,0.17,4.922,0.465,7.323h-4.726
			C11.682,246.784,0,258.465,0,272.877c0,14.41,11.682,26.091,26.092,26.091h63.769c32.865,0,59.507-26.641,59.507-59.507
			C149.369,206.595,122.727,179.954,89.861,179.954z"/>
		<path style="fill:#C4636A;" d="M251.628,101.746c6.529,11.492,1.058,20.896-12.161,20.896h-18.324
			c-13.218,0-18.69-9.403-12.16-20.896l9.45-16.633c6.529-11.491,17.214-11.491,23.745,0L251.628,101.746z"/>
	</g>
	<path style="fill:#006132;" d="M159.864,298.967c0-27.293-22.126-49.419-49.421-49.419s-49.42,22.126-49.42,49.419H159.864z"/>
	<path style="fill:#00783E;" d="M106.237,298.967c0-24.308-19.704-44.012-44.012-44.012s-44.014,19.704-44.014,44.012H106.237z"/>
	<g>
		<circle style="fill:#E94F3D;" cx="335.813" cy="259.317" r="39.65"/>
		<circle style="fill:#F47660;" cx="350.257" cy="243.338" r="9.313"/>
	</g>
	<path style="fill:#00783E;" d="M340.177,298.967c0-24.308-19.706-44.012-44.014-44.012s-44.013,19.704-44.013,44.012H340.177z"/>
</g>
<g>
</g>
<g>
</g>
<g>
</g>
<g>
</g>
<g>
</g>
<g>
</g>
<g>
</g>
<g>
</g>
<g>
</g>
<g>
</g>
<g>
</g>
<g>
</g>
<g>
</g>
<g>
</g>
<g>
</g>
</svg>
